<?xml version="1.0" encoding="utf-8"?>
<!-- Generator: Adobe Illustrator 24.1.3, SVG Export Plug-In . SVG Version: 6.00 Build 0)  -->
<svg version="1.1" id="Layer_1" xmlns="http://www.w3.org/2000/svg" xmlns:xlink="http://www.w3.org/1999/xlink" x="0px" y="0px"
	 viewBox="0 0 46.54 16.94" style="enable-background:new 0 0 46.54 16.94;" xml:space="preserve">
<style type="text/css">
	.st0{fill:#5BBDD8;}
	.st1{fill:#379FD9;}
	.st2{fill:#3285C7;}
	.st3{fill:#0D5F9D;}
	.st4{enable-background:new    ;}
	.st5{font-family:'Rockwell-Italic';}
	.st6{font-size:6px;}
</style>
<g>
	<g>
		<path class="st0" d="M13.53,10.17c0,0.99-0.21,1.93-0.59,2.77c-1.05,2.36-3.42,3.99-6.17,3.99c-2.99,0-5.53-1.94-6.42-4.63
			C0.12,11.63,0,10.91,0,10.17c0-0.64,0.2-1.35,0.53-2.1C1.17,6.6,2.3,5.01,3.42,3.63C5.11,1.58,6.78,0,6.78,0s1.8,1.72,3.54,3.89
			c0.84,1.05,1.67,2.2,2.26,3.32C13.16,8.27,13.53,9.29,13.53,10.17z"/>
	</g>
	<path class="st1" d="M12.57,7.21c-0.6-1.12-1.43-2.27-2.26-3.32C9.13,4.35,8.14,4.87,6.19,4.8C5.28,4.77,4.31,4.27,3.43,3.64
		C2.3,5.02,1.17,6.61,0.53,8.08C0.2,8.82,0,9.54,0,10.18c0,0.74,0.12,1.46,0.35,2.13c0.89,2.69,3.42,4.63,6.42,4.63
		c2.75,0,5.11-1.64,6.17-3.99c0.38-0.84,0.59-1.78,0.59-2.77C13.52,9.29,13.15,8.27,12.57,7.21z"/>
	<path class="st2" d="M13.53,10.17c0,0.99-0.21,1.93-0.59,2.77c-1.05,2.36-3.42,3.99-6.17,3.99c-2.99,0-5.53-1.94-6.42-4.63
		C0.12,11.63,0,10.91,0,10.17c0-0.64,0.2-1.35,0.53-2.1C2.6,8.48,5.75,8.92,8.39,8.46c1.6-0.28,3.02-0.76,4.18-1.26
		C13.16,8.27,13.53,9.29,13.53,10.17z"/>
	<path class="st3" d="M12.95,12.95c-1.05,2.36-3.42,3.99-6.17,3.99c-2.99,0-5.53-1.94-6.42-4.63c1.74,0.98,3.9,1.75,5.89,1.24
		C8.6,12.95,11.12,12.88,12.95,12.95z"/>
</g>
<text transform="matrix(1 0 0 1 16.1563 6.5945)" class="st4"><tspan x="0" y="0" class="st2 st5 st6"> Premium </tspan><tspan x="0" y="7.2" class="st2 st5 st6">Plumbers  </tspan></text>
</svg>
